<svg width="30" height="30" viewBox="0 0 30 30" fill="none" xmlns="http://www.w3.org/2000/svg">
<path d="M18.6794 4.68762C20.2696 5.11439 21.7196 5.9519 22.8838 7.11611C24.048 8.28032 24.8855 9.73027 25.3123 11.3204" stroke="#0e1120" stroke-width="1.66667" stroke-linecap="round" stroke-linejoin="round"/>
<path d="M17.7069 8.30872C18.6633 8.56272 19.5356 9.06502 20.2353 9.76474C20.935 10.4645 21.4373 11.3367 21.6913 12.2931" stroke="#0e1120" stroke-width="1.66667" stroke-linecap="round" stroke-linejoin="round"/>
<path d="M10.8397 14.6251C11.8044 16.6173 13.4153 18.2241 15.41 19.1837C15.5571 19.2534 15.7199 19.2835 15.8822 19.2712C16.0445 19.2589 16.2008 19.2045 16.3358 19.1134L19.2655 17.1563C19.3949 17.0686 19.5445 17.015 19.7002 17.0006C19.8559 16.9863 20.0128 17.0116 20.1561 17.0743L25.6405 19.4298C25.8279 19.5078 25.9845 19.6453 26.0861 19.821C26.1878 19.9968 26.2288 20.2011 26.203 20.4024C26.0291 21.7592 25.3669 23.0061 24.3402 23.9098C23.3135 24.8136 21.9926 25.3123 20.6248 25.3126C16.3979 25.3126 12.3442 23.6335 9.35532 20.6446C6.36646 17.6558 4.68733 13.602 4.68733 9.3751C4.68764 8.00728 5.18633 6.68644 6.0901 5.65974C6.99386 4.63303 8.24076 3.9708 9.59749 3.79697C9.79886 3.77111 10.0032 3.81215 10.1789 3.9138C10.3547 4.01544 10.4921 4.17203 10.5701 4.35947L12.9256 9.85557C12.9869 9.9966 13.0125 10.1505 13.0002 10.3038C12.988 10.4571 12.9382 10.605 12.8553 10.7345L10.8983 13.711C10.8111 13.8457 10.76 14.0004 10.7497 14.1604C10.7395 14.3205 10.7705 14.4804 10.8397 14.6251V14.6251Z" stroke="#0e1120" stroke-width="1.66667" stroke-linecap="round" stroke-linejoin="round"/>
</svg>
