<svg xmlns="http://www.w3.org/2000/svg" width="14.665" height="14.665" viewBox="0 0 14.665 14.665">
  <path id="Icon_material-phone-in-talk" data-name="Icon material-phone-in-talk" d="M18.35,14.684a9.256,9.256,0,0,1-2.909-.464.831.831,0,0,0-.831.2l-1.792,1.792a12.258,12.258,0,0,1-5.369-5.369l1.792-1.8a.782.782,0,0,0,.2-.815,9.256,9.256,0,0,1-.464-2.909A.817.817,0,0,0,8.166,4.5H5.315a.817.817,0,0,0-.815.815,13.849,13.849,0,0,0,13.85,13.85.817.817,0,0,0,.815-.815V15.5A.817.817,0,0,0,18.35,14.684Zm-.815-2.852h1.629A7.333,7.333,0,0,0,11.833,4.5V6.129A5.7,5.7,0,0,1,17.536,11.833Zm-3.259,0h1.629a4.075,4.075,0,0,0-4.074-4.074V9.388A2.441,2.441,0,0,1,14.277,11.833Z" transform="translate(-4.5 -4.5)" fill="#ff1182"/>
</svg>
