<svg xmlns="http://www.w3.org/2000/svg" width="15.446" height="17.033" viewBox="0 0 15.446 17.033">
  <path id="Icon_simple-email" data-name="Icon simple-email" d="M17.105,7.861a8.784,8.784,0,0,1-.283,1.905,5.513,5.513,0,0,1-.741,1.673,3.909,3.909,0,0,1-1.256,1.189,3.545,3.545,0,0,1-1.834.452,2.659,2.659,0,0,1-1.326-.325,2.271,2.271,0,0,1-.9-.919,2.841,2.841,0,0,1-2.4,1.207,2.444,2.444,0,0,1-2.1-1.128,3.693,3.693,0,0,1-.522-1.307A5.637,5.637,0,0,1,5.678,8.9,7.921,7.921,0,0,1,6.2,6.816a5.676,5.676,0,0,1,.96-1.6A4.061,4.061,0,0,1,8.477,4.2a3.683,3.683,0,0,1,1.605-.357,4.991,4.991,0,0,1,.96.082,3.93,3.93,0,0,1,.745.224,4.029,4.029,0,0,1,.617.326c.188.121.378.247.566.375L12.5,10.211a1.783,1.783,0,0,0,.014.628.879.879,0,0,0,.192.387.69.69,0,0,0,.311.2,1.154,1.154,0,0,0,1.092-.215,2.327,2.327,0,0,0,.585-.745,4.8,4.8,0,0,0,.394-1.12,7.683,7.683,0,0,0,.172-1.394,8.911,8.911,0,0,0-.219-2.606,5.179,5.179,0,0,0-.964-2.016,4.478,4.478,0,0,0-1.729-1.3,6.274,6.274,0,0,0-2.518-.461,5.56,5.56,0,0,0-2.491.543A5.715,5.715,0,0,0,5.451,3.621,7.223,7.223,0,0,0,4.212,5.885a10.2,10.2,0,0,0-.522,2.821,9.379,9.379,0,0,0,.266,2.878,5.2,5.2,0,0,0,1.052,2.063A4.388,4.388,0,0,0,6.79,14.885a6.835,6.835,0,0,0,2.459.411,8.421,8.421,0,0,0,1.614-.173c.266-.053.518-.117.759-.187a5.711,5.711,0,0,0,.654-.234l.337,1.518a3.745,3.745,0,0,1-.731.362,7.038,7.038,0,0,1-.864.25,8.433,8.433,0,0,1-1.805.2,9.467,9.467,0,0,1-3.291-.53,6.057,6.057,0,0,1-2.4-1.577,6.625,6.625,0,0,1-1.44-2.6,11.11,11.11,0,0,1-.4-3.616,11.027,11.027,0,0,1,.692-3.47A8.587,8.587,0,0,1,4.038,2.479,7.6,7.6,0,0,1,6.581.66,7.961,7.961,0,0,1,9.874,0a8.312,8.312,0,0,1,3.191.572,6.206,6.206,0,0,1,2.3,1.607,6.6,6.6,0,0,1,1.367,2.483A9.495,9.495,0,0,1,17.105,7.861ZM7.964,8.9a3.621,3.621,0,0,0,.187,1.8.963.963,0,0,0,.926.607,1.023,1.023,0,0,0,.317-.059,1.131,1.131,0,0,0,.365-.219,1.948,1.948,0,0,0,.37-.447,3.431,3.431,0,0,0,.341-.756l.364-4.168a2.175,2.175,0,0,0-.566-.075,1.958,1.958,0,0,0-.942.216,1.865,1.865,0,0,0-.667.634,3.725,3.725,0,0,0-.443,1.043A8.848,8.848,0,0,0,7.965,8.9Z" transform="translate(-1.67)" fill="#ff1182"/>
</svg>
